<?xml version="1.0" standalone="no"?><!DOCTYPE svg PUBLIC "-//W3C//DTD SVG 1.1//EN" "http://www.w3.org/Graphics/SVG/1.1/DTD/svg11.dtd"><svg t="1789535604478" class="icon" viewBox="0 0 1024 1024" version="1.1" xmlns="http://www.w3.org/2000/svg" p-id="18686" xmlns:xlink="http://www.w3.org/1999/xlink" width="200" height="200"><path d="M544.553986 1023.986348a382.442781 382.442781 0 0 1-176.285739-42.506537 397.228257 397.228257 0 0 1-134.714388-113.594229l64.350268-81.995907-64.350268-82.00956a397.064429 397.064429 0 0 1 134.714388-113.53962 382.476912 382.476912 0 0 1 176.285739-42.492884 388.033411 388.033411 0 0 1 260.199799 100.269554c0.518789-0.416396 1.044403-0.798661 1.570018-1.215058l0.546093-0.389091a121.963109 121.963109 0 0 1 10.239249-7.242562 137.615508 137.615508 0 0 1 71.087694-20.062103 136.468712 136.468712 0 0 1 81.961776 27.693756 150.85827 150.85827 0 0 1-13.14037 77.927512 147.738712 147.738712 0 0 1-51.926645 60.99862 147.513449 147.513449 0 0 1 51.947124 61.060056 151.1791 151.1791 0 0 1 13.119891 77.982121 136.36632 136.36632 0 0 1-81.961776 27.666451 137.36294 137.36294 0 0 1-71.087694-20.062102 139.547313 139.547313 0 0 1-11.781962-8.362053l-0.587051-0.450527A388.012932 388.012932 0 0 1 544.553986 1023.986348z m-107.170807-271.995414a39.018365 39.018365 0 0 0-37.837439 39.967202 39.011539 39.011539 0 0 0 37.837439 40.021812 39.038844 39.038844 0 0 0 37.898874-40.021812 39.038844 39.038844 0 0 0-37.898874-39.95355zM186.658098 571.616321C112.00032 571.616321 51.254268 507.5391 51.254268 428.785622V309.703155a23.76871 23.76871 0 0 1 13.911726-21.959776 21.161115 21.161115 0 0 1 8.669231-1.829413 21.782296 21.782296 0 0 1 15.904967 6.949037l67.72922 71.408524a24.437675 24.437675 0 0 1 6.635034 16.840151 24.075888 24.075888 0 0 1-6.635034 16.8265 21.843731 21.843731 0 0 1-15.95275 6.99682 21.843731 21.843731 0 0 1-15.959576-6.99682l-29.18186-30.717747v61.544713c0.116045 52.45226 40.615688 95.177234 90.289699 95.245495 49.694489-0.068262 90.221437-42.800061 90.337481-95.245495v-290.112059a71.422176 71.422176 0 0 1-45.16874-67.046603c0-39.503023 30.390091-71.606482 67.742872-71.606482s67.72922 32.082981 67.72922 71.606482a71.353914 71.353914 0 0 1-45.182394 67.046603v290.112059c-0.047783 78.794435-60.800661 142.86483-135.472092 142.86483z" fill="#ea9518" p-id="18687"></path></svg>
